<?xml version="1.0" encoding="utf-8"?>
<!-- Generator: Adobe Illustrator 16.0.0, SVG Export Plug-In . SVG Version: 6.00 Build 0)  -->
<!DOCTYPE svg PUBLIC "-//W3C//DTD SVG 1.1//EN" "http://www.w3.org/Graphics/SVG/1.1/DTD/svg11.dtd">
<svg version="1.1" id="Layer_1" xmlns="http://www.w3.org/2000/svg" xmlns:xlink="http://www.w3.org/1999/xlink" x="0px" y="0px"
	 width="1280px" height="746.48px" viewBox="0 0 1280 746.48" enable-background="new 0 0 1280 746.48" xml:space="preserve">
<g>
	<g>
		<g>
			<polygon fill="#FFFFFF" points="21.857,625.43 42.593,625.43 73.976,694.361 104.238,625.43 124.974,625.43 142.907,746.48 
				112.645,746.48 101.997,680.91 73.976,746.48 60.525,746.48 33.065,685.395 21.857,746.48 0,746.48 			"/>
			<polygon fill="#FFFFFF" points="193.346,625.43 193.346,746.48 254.432,746.48 254.432,738.074 223.608,738.074 223.608,690.438 
				254.432,690.438 254.432,680.91 224.168,680.91 224.168,642.803 254.432,642.803 254.432,625.43 			"/>
			<polygon fill="#FFFFFF" points="312.715,625.43 312.715,638.318 338.494,638.318 338.494,746.48 364.834,746.48 364.834,638.318 
				390.613,638.318 390.613,625.43 			"/>
			<path fill="#FFFFFF" d="M501.016,685.395c24.099-4.484,23.538-29.703,23.538-29.703c1.121-28.021-25.779-30.262-25.779-30.262
				h-47.075V746.48h25.779v-43.152h4.483l26.34,43.152h29.142L501.016,685.395z M476.918,677.549v-39.23
				c0,0,26.34-1.12,26.34,19.615C503.258,681.471,476.918,677.549,476.918,677.549z"/>
			<path fill="#FFFFFF" d="M641.121,625.43c-30.823,0-56.042,26.9-56.042,60.525s25.219,60.525,56.042,60.525
				s56.043-26.9,56.043-60.525C696.603,652.33,671.944,625.43,641.121,625.43z M641.121,734.15
				c-15.691,0-28.021-21.295-28.021-47.635s12.329-47.637,28.021-47.637s28.021,21.297,28.021,47.637S656.253,734.15,641.121,734.15
				z"/>
			<path fill="#FFFFFF" d="M846.234,712.295L846.234,712.295c-5.604,10.648-15.131,17.373-25.219,17.373
				c-17.373,0-31.943-20.176-31.943-45.395s14.01-45.395,31.943-45.395c10.088,0,19.055,6.726,25.219,17.373l0,0h5.045v-17.934
				c-9.527-7.846-21.857-12.889-34.746-12.889c-31.384,0-56.603,26.9-56.603,60.525s25.219,60.525,56.603,60.525
				c12.889,0,28.021-6.166,34.746-16.252v-18.494h-5.045V712.295z"/>
			<rect x="934.221" y="625.43" fill="#FFFFFF" width="25.779" height="121.051"/>
			<polygon fill="#FFFFFF" points="1044.063,625.43 1044.063,638.318 1070.403,638.318 1070.403,746.48 1096.183,746.48 
				1096.183,638.318 1122.521,638.318 1122.521,625.43 			"/>
			<polygon fill="#FFFFFF" points="1185.289,625.43 1223.959,684.273 1223.959,746.48 1249.738,746.48 1249.738,679.229 
				1280,625.43 1263.188,625.43 1239.09,668.582 1209.387,625.43 			"/>
		</g>
	</g>
</g>
<g>
	<g>
		<g>
			<path fill="#FFFFFF" d="M640,79.91c-104.799,0-189.422,84.624-189.422,189.422c0,104.798,85.185,189.421,189.422,189.421
				c104.799,0,189.422-85.184,189.422-189.421C829.982,165.094,744.799,79.91,640,79.91z M640.561,448.667
				c-99.194,0-179.334-80.14-179.334-179.334c0-99.194,80.14-179.334,179.334-179.334c99.195,0,179.334,80.14,179.334,179.334
				C820.455,368.527,739.756,448.667,640.561,448.667z"/>
			<path fill="#FFFFFF" d="M640-6.395c-152.434,0-276.287,123.853-276.287,276.288c0,152.434,123.854,276.287,276.287,276.287
				c152.435,0,276.287-123.853,276.287-276.287C916.287,117.458,792.435-6.395,640-6.395z M640.561,536.092
				c-146.83,0-265.639-118.809-265.639-265.639S493.73,4.814,640.561,4.814S906.2,123.623,906.2,270.453
				S787.391,536.092,640.561,536.092z"/>
		</g>
		<path fill="#FFFFFF" d="M776.743,384.219c-41.472-142.907-2.802-232.014-2.802-232.014l-76.777,0.561
			c0,0-8.407,48.756-56.043,70.613c-47.636-21.856-58.844-70.613-58.844-70.613l-76.218,1.121c0,0,39.229,88.546-0.56,232.015
			l86.865-0.561c0,0-15.692-57.164,5.043-91.909c0,0,21.857,7.846,35.307,58.844h8.967h7.846
			c12.89-50.998,34.746-59.404,34.746-59.404c20.736,34.746,6.164,91.909,6.164,91.909L776.743,384.219z"/>
		<g>
			<polygon fill="#FFFFFF" points="392.295,209.368 395.097,201.521 425.92,198.159 402.942,177.984 405.745,169.578 
				455.062,178.544 451.139,190.313 424.238,185.83 446.096,204.884 444.414,209.928 416.953,213.291 439.37,225.059 
				436.568,233.465 			"/>
			<polygon fill="#FFFFFF" points="471.874,155.567 429.282,126.986 443.854,105.129 446.655,107.371 439.37,118.019 
				456.183,129.227 463.468,118.58 466.83,120.821 459.545,131.469 472.995,140.436 480.28,129.788 486.445,134.271 			"/>
			<polygon fill="#FFFFFF" points="475.797,78.229 479.16,82.712 488.127,76.548 514.466,114.656 523.434,107.931 497.653,70.383 
				506.62,63.658 503.258,59.175 			"/>
			<path fill="#FFFFFF" d="M566.025,55.812c8.966-5.043,5.604-15.131,5.604-15.131c-3.362-11.769-14.57-8.967-14.57-8.967
				l-19.055,6.165l16.252,49.317l10.648-3.362L559.3,66.46l1.682-0.561l16.252,14.011l11.769-3.923L566.025,55.812z M555.377,55.812
				l-5.044-15.691c0,0,10.648-3.923,13.45,4.483C566.586,53.571,555.377,55.812,555.377,55.812z"/>
			<path fill="#FFFFFF" d="M640,17.143c-14.57,0-26.899,11.769-26.899,25.779c0,14.011,11.769,25.779,26.899,25.779
				c14.571,0,26.9-11.769,26.9-25.779C666.9,28.912,654.571,17.143,640,17.143z M640,63.658c-7.285,0-13.45-8.967-13.45-20.175
				s6.165-20.175,13.45-20.175s13.451,8.966,13.451,20.175S647.285,63.658,640,63.658z"/>
			<path fill="#FFFFFF" d="M731.91,74.867L731.91,74.867c-4.484,2.242-10.088,2.802-14.012,0
				c-6.725-4.483-7.846-15.131-2.241-24.659c5.604-8.967,16.253-12.89,22.978-8.406c3.922,2.802,6.164,7.286,5.604,12.329l0,0
				l1.682,1.121l3.923-6.165c-1.681-5.044-5.604-10.088-10.648-13.45c-12.329-7.846-28.581-4.483-35.866,7.846
				c-7.847,11.769-3.924,28.021,8.406,35.867c5.043,3.362,12.328,4.483,17.372,2.802l4.483-6.725L731.91,74.867z"/>
			<polygon fill="#FFFFFF" points="771.699,114.096 803.643,73.746 795.236,67.021 763.293,107.371 			"/>
			<polygon fill="#FFFFFF" points="837.828,112.975 833.346,116.337 839.51,125.304 802.522,152.205 809.248,161.171 
				846.234,134.271 852.96,143.238 857.443,139.875 			"/>
			<polygon fill="#FFFFFF" points="877.059,181.346 857.443,203.763 831.664,210.488 834.467,221.136 861.927,213.851 
				887.706,220.576 886.025,213.291 865.289,208.247 879.86,190.874 			"/>
			<polygon fill="#FFFFFF" points="886.025,329.858 883.223,338.264 852.96,341.066 875.377,361.802 872.574,369.647 
				823.818,361.241 827.741,349.473 854.641,353.956 832.785,334.341 834.467,329.297 861.366,326.495 839.51,314.727 
				842.313,306.32 			"/>
			<polygon fill="#FFFFFF" points="806.445,384.219 849.598,412.8 835.026,434.096 832.225,432.414 839.51,421.767 822.137,409.998 
				814.852,421.207 812.049,418.965 818.774,408.316 805.324,398.789 798.039,409.438 791.874,405.515 			"/>
			<polygon fill="#FFFFFF" points="802.522,461.557 799.721,457.073 790.193,463.238 764.414,425.129 754.887,431.854 
				781.227,469.402 772.26,475.566 775.062,480.611 			"/>
			<path fill="#FFFFFF" d="M712.295,483.973c-8.967,5.045-5.604,15.133-5.604,15.133c3.362,11.207,14.571,8.966,14.571,8.966
				l19.055-6.165l-16.253-49.316l-10.647,3.362l5.604,17.373l-1.682,0.561l-16.252-14.011l-11.769,3.924L712.295,483.973z
				 M723.503,483.973l5.044,15.692c0,0-10.648,3.923-13.45-4.483C712.295,485.654,723.503,483.973,723.503,483.973z"/>
			<path fill="#FFFFFF" d="M638.319,522.082c14.571,0,26.899-11.77,26.899-25.779c0-14.011-11.768-25.779-26.899-25.779
				c-14.571,0-26.9,11.769-26.9,25.779C611.979,510.873,623.748,522.082,638.319,522.082z M638.319,476.127
				c7.285,0,13.45,8.967,13.45,20.176s-6.164,20.175-13.45,20.175s-13.45-8.966-13.45-20.175S631.033,476.127,638.319,476.127z"/>
			<path fill="#FFFFFF" d="M546.971,464.919L546.971,464.919c4.483-2.241,10.088-2.802,14.011,0
				c6.725,4.483,7.846,15.132,2.241,24.099c-5.604,8.967-16.252,12.889-22.977,8.406c-3.923-2.803-6.164-7.285-5.604-12.33l0,0
				l-1.681-1.121l-5.045,6.166c1.682,5.043,5.604,10.087,10.648,13.449c12.329,7.846,28.581,4.483,35.867-7.846
				c7.846-11.77,3.923-28.021-8.406-35.867c-5.044-3.362-12.33-4.482-17.373-2.802l-4.483,6.726L546.971,464.919z"/>
			<polygon fill="#FFFFFF" points="507.181,425.689 474.677,466.04 483.643,472.766 515.587,432.414 			"/>
			<polygon fill="#FFFFFF" points="441.051,426.811 445.534,423.447 438.81,414.481 476.357,387.581 469.633,378.614 
				432.645,405.515 425.92,396.548 421.437,399.91 			"/>
			<polygon fill="#FFFFFF" points="401.262,358.439 421.437,336.022 447.216,329.297 444.414,318.649 416.393,325.935 
				391.174,319.21 392.855,326.495 413.03,331.539 398.459,348.352 			"/>
			<ellipse fill="#FFFFFF" cx="409.668" cy="270.453" rx="16.813" ry="17.373"/>
			<ellipse fill="#FFFFFF" cx="870.894" cy="270.453" rx="16.813" ry="17.373"/>
		</g>
	</g>
</g>
</svg>
