<?xml version="1.0" encoding="utf-8"?>
<!-- Generator: Adobe Illustrator 16.0.0, SVG Export Plug-In . SVG Version: 6.00 Build 0)  -->
<!DOCTYPE svg PUBLIC "-//W3C//DTD SVG 1.1//EN" "http://www.w3.org/Graphics/SVG/1.1/DTD/svg11.dtd">
<svg version="1.1" id="Layer_1" xmlns="http://www.w3.org/2000/svg" xmlns:xlink="http://www.w3.org/1999/xlink" x="0px" y="0px"
	 width="1280px" height="121.052px" viewBox="1 189.474 1280 121.052" enable-background="new 1 189.474 1280 121.052"
	 xml:space="preserve">
<g>
	<g>
		<g>
			<g>
				<polygon fill="#242424" points="22.856,189.475 43.592,189.475 74.976,258.406 105.238,189.475 125.974,189.475 
					143.907,310.525 113.645,310.525 102.997,244.956 74.976,310.525 61.525,310.525 34.065,249.439 22.856,310.525 1,310.525 				
					"/>
				<polygon fill="#242424" points="194.345,189.475 194.345,310.525 255.431,310.525 255.431,302.119 224.608,302.119 
					224.608,254.482 255.431,254.482 255.431,244.956 225.168,244.956 225.168,206.848 255.431,206.848 255.431,189.475 				"/>
				<polygon fill="#242424" points="313.714,189.475 313.714,202.364 339.494,202.364 339.494,310.525 365.833,310.525 
					365.833,202.364 391.613,202.364 391.613,189.475 				"/>
				<path fill="#242424" d="M502.016,249.439c24.1-4.483,23.538-29.702,23.538-29.702c1.12-28.021-25.778-30.263-25.778-30.263
					h-47.076v121.051h25.78v-43.152h4.482l26.339,43.152h29.144L502.016,249.439z M477.918,241.594v-39.229
					c0,0,26.34-1.121,26.34,19.615C504.258,245.517,477.918,241.594,477.918,241.594z"/>
				<path fill="#242424" d="M642.121,189.475c-30.823,0-56.042,26.9-56.042,60.525s25.219,60.525,56.042,60.525
					s56.042-26.9,56.042-60.525C697.603,216.375,672.944,189.475,642.121,189.475z M642.121,298.196
					c-15.692,0-28.021-21.296-28.021-47.636c0-26.34,12.329-47.637,28.021-47.637c15.69,0,28.021,21.296,28.021,47.637
					C670.142,276.9,657.813,298.196,642.121,298.196z"/>
				<path fill="#242424" d="M847.234,276.34L847.234,276.34c-5.604,10.648-15.132,17.373-25.22,17.373
					c-17.373,0-31.942-20.176-31.942-45.394c0-25.219,14.01-45.394,31.942-45.394c10.088,0,19.056,6.725,25.22,17.373l0,0h5.044
					v-17.934c-10.088-8.406-21.856-12.89-35.308-12.89c-31.383,0-56.603,26.9-56.603,60.525s25.22,60.525,56.603,60.525
					c12.891,0,28.021-6.165,34.746-16.253v-18.494h-4.482V276.34z"/>
				<rect x="935.221" y="189.475" fill="#242424" width="25.779" height="121.051"/>
				<polygon fill="#242424" points="1045.063,189.475 1045.063,202.364 1071.403,202.364 1071.403,310.525 1097.742,310.525 
					1097.742,202.364 1123.522,202.364 1123.522,189.475 				"/>
				<polygon fill="#242424" points="1186.289,189.475 1224.958,248.319 1224.958,310.525 1250.737,310.525 1250.737,243.275 
					1281,189.475 1264.188,189.475 1240.089,232.627 1210.387,189.475 				"/>
			</g>
		</g>
	</g>
</g>
</svg>
